<svg xmlns="http://www.w3.org/2000/svg" xmlns:xlink="http://www.w3.org/1999/xlink" width="49" height="70" viewBox="0 0 49 70">
  <defs>
    <path id="-marker-a" d="M41.1429062,20.5714531 C41.1429062,23.0223489 40.8616559,25.5536019 39.8170118,27.763426 L25.1919943,58.8616773 C24.3482433,60.6295366 22.5000268,61.7143593 20.5714531,61.7143593 C18.6428794,61.7143593 16.7946629,60.6295366 15.9910905,58.8616773 L1.32589444,27.763426 C0.281250335,25.5536019 0,23.0223489 0,20.5714531 C0,9.20090383 9.20090383,0 20.5714531,0 C31.9420024,0 41.1429062,9.20090383 41.1429062,20.5714531 Z"/>
    <filter id="-marker-b" width="134%" height="122.7%" x="-17%" y="-8.1%" filterUnits="objectBoundingBox">
      <feOffset dy="2" in="SourceAlpha" result="shadowOffsetOuter1"/>
      <feGaussianBlur in="shadowOffsetOuter1" result="shadowBlurOuter1" stdDeviation="2"/>
      <feColorMatrix in="shadowBlurOuter1" values="0 0 0 0 0   0 0 0 0 0   0 0 0 0 0  0 0 0 0.5 0"/>
    </filter>
  </defs>
  <g fill="none" fill-rule="evenodd" transform="translate(4 2)">
    <mask id="-marker-c" fill="#fff">
      <use xlink:href="#-marker-a"/>
    </mask>
    <use fill="#000" filter="url(#-marker-b)" xlink:href="#-marker-a"/>
    <use fill="#417505" xlink:href="#-marker-a"/>
    <g fill="#417505" mask="url(#-marker-c)">
      <rect width="42" height="62"/>
    </g>
    <g fill="#FFF" fill-rule="nonzero" mask="url(#-marker-c)">
      <path d="M16.308571,13.418623 C14.6781702,13.4193995 13.3562246,14.7292107 13.353871,16.3462013 C13.3554405,17.9637429 14.6776155,19.2744127 16.308571,19.2751904 C17.9381846,19.2728561 19.2582203,17.9624141 19.2590032,16.3462013 C19.2578275,14.7303784 17.9377921,13.420568 16.308571,13.418623 L16.308571,13.418623 Z M16.308571,18.5161364 C15.1003055,18.5153592 14.1207883,17.544529 14.1192194,16.3462013 C14.1215718,15.1484246 15.1008599,14.1784525 16.308571,14.177677 C17.515102,14.1796209 18.4924801,15.149592 18.4936548,16.3462013 C18.4932641,17.5433614 17.5156569,18.5141911 16.308571,18.5161364 L16.308571,18.5161364 Z M6.02402419,18.5147255 C4.81575869,18.5139483 3.8362415,17.5431181 3.83467258,16.3447904 C3.83702501,15.1470137 4.81631308,14.1770417 6.02402419,14.1762662 C7.23117987,14.1778187 8.20960264,15.1475638 8.21195323,16.3447904 C8.21038579,17.5425679 7.23173418,18.5131709 6.02402419,18.5147255 L6.02402419,18.5147255 Z M6.02402419,13.4172121 C4.39385437,13.4179898 3.07231632,14.7280279 3.07074677,16.3447904 C3.07192365,17.9619427 4.39346184,19.2726123 6.02402419,19.2737795 C7.65442416,19.2722239 8.97573317,17.9617816 8.97730161,16.3447904 C8.97494936,14.7283501 7.65386952,13.4187662 6.02402419,13.4172121 L6.02402419,13.4172121 Z M21.8153806,11.2261138 C21.8168032,11.2430444 21.8331629,11.2522151 21.8317403,11.2691457 C21.8317403,11.2860763 21.8153806,11.2959524 21.8139581,11.3121776 L21.8139581,16.3440849 C21.8139581,16.5540815 21.6423105,16.7243174 21.4305726,16.7243174 L20.1509613,16.7243174 C19.9396162,16.7243174 19.7682871,16.5543974 19.7682871,16.3447904 C19.7682871,16.1351834 19.9396162,15.9652634 20.1509613,15.9652634 L21.0486097,15.9652634 L21.0486097,11.6486727 L17.59245,11.6486727 C17.4910892,11.6488604 17.3938255,11.6090093 17.3221524,11.5379257 C17.2504794,11.4668422 17.2102978,11.3703783 17.2104871,11.2698511 L17.2104871,6.54269408 L14.1362903,6.54269408 L14.1362903,13.5103303 C14.1362903,13.7199373 13.9649613,13.8898573 13.7536161,13.8898573 C13.542271,13.8898573 13.3709419,13.7199373 13.3709419,13.5103303 L13.3709419,3.97841772 L1.26406935,3.97841772 L1.26406935,15.9652634 L2.17523226,15.9652634 C2.38657738,15.9652634 2.55790645,16.1351834 2.55790645,16.3447904 C2.55790645,16.5543974 2.38657738,16.7243174 2.17523226,16.7243174 L0.882106452,16.7243174 C0.670368496,16.7243174 0.498720968,16.5540815 0.498720968,16.3440849 L0.498720968,3.59959615 C0.498720968,3.39008031 0.670853226,3.22077458 0.882106452,3.22077458 L13.7550387,3.22077458 C13.9662919,3.22077458 14.1370016,3.39008031 14.1370016,3.59959615 L14.1370016,5.78364006 L21.4319952,5.78364006 C21.6435708,5.78402828 21.8149892,5.95403694 21.8153806,6.16387251 L21.8153806,11.2261138 L21.8153806,11.2261138 Z M21.0500323,10.8903241 L21.0500323,6.54339952 L17.9758355,6.54339952 L17.9758355,10.8903241 L21.0500323,10.8903241 Z M12.459779,15.9659688 C12.6711242,15.9659688 12.8424532,16.1358888 12.8424532,16.3454958 C12.8424532,16.5551028 12.6711242,16.7250228 12.459779,16.7250228 L9.86997097,16.7250228 C9.65862585,16.7250228 9.48729677,16.5551028 9.48729677,16.3454958 C9.48729677,16.1358888 9.65862585,15.9659688 9.86997097,15.9659688 L12.459779,15.9659688 L12.459779,15.9659688 Z" transform="translate(10 9)"/>
    </g>
    <path stroke="#FFF" stroke-width="2" d="M40.1429062,20.5714531 C40.1429062,9.75318858 31.3897176,1 20.5714531,1 C9.75318858,1 1,9.75318858 1,20.5714531 C1,23.3022456 1.36393597,25.5040583 2.23036856,27.3368975 L16.901457,58.4478744 C17.5241184,59.8177294 18.9880038,60.7143593 20.5714531,60.7143593 C22.1536845,60.7143593 23.6280173,59.8169394 24.2870697,58.4361055 L38.9129395,27.3360463 C39.7789702,25.5040583 40.1429062,23.3022456 40.1429062,20.5714531 Z" mask="url(#-marker-c)"/>
  </g>
</svg>
