<svg xmlns="http://www.w3.org/2000/svg" xmlns:xlink="http://www.w3.org/1999/xlink" width="49" height="70" viewBox="0 0 49 70">
  <defs>
    <path id="-marker@1.5x-a" d="M41.1429062,20.5714531 C41.1429062,23.0223489 40.8616559,25.5536019 39.8170118,27.763426 L25.1919943,58.8616773 C24.3482433,60.6295366 22.5000268,61.7143593 20.5714531,61.7143593 C18.6428794,61.7143593 16.7946629,60.6295366 15.9910905,58.8616773 L1.32589444,27.763426 C0.281250335,25.5536019 0,23.0223489 0,20.5714531 C0,9.20090383 9.20090383,0 20.5714531,0 C31.9420024,0 41.1429062,9.20090383 41.1429062,20.5714531 Z"/>
    <filter id="-marker@1.5x-b" width="134%" height="122.7%" x="-17%" y="-8.1%" filterUnits="objectBoundingBox">
      <feOffset dy="2" in="SourceAlpha" result="shadowOffsetOuter1"/>
      <feGaussianBlur in="shadowOffsetOuter1" result="shadowBlurOuter1" stdDeviation="2"/>
      <feColorMatrix in="shadowBlurOuter1" values="0 0 0 0 0   0 0 0 0 0   0 0 0 0 0  0 0 0 0.5 0"/>
    </filter>
  </defs>
  <g fill="none" fill-rule="evenodd" transform="translate(4 2)">
    <mask id="-marker@1.5x-c" fill="#fff">
      <use xlink:href="#-marker@1.5x-a"/>
    </mask>
    <use fill="#000" filter="url(#-marker@1.5x-b)" xlink:href="#-marker@1.5x-a"/>
    <use fill="#417505" xlink:href="#-marker@1.5x-a"/>
    <g fill="#417505" mask="url(#-marker@1.5x-c)">
      <rect width="42" height="62"/>
    </g>
    <g fill="#FFF" mask="url(#-marker@1.5x-c)">
      <path d="M12.6971429,16.5 C12.6971429,17.1547652 12.4679785,17.7113072 12.0096429,18.1696429 C11.5513072,18.6279785 10.9947652,18.8571429 10.34,18.8571429 C9.68523482,18.8571429 9.12869277,18.6279785 8.67035714,18.1696429 C8.21202152,17.7113072 7.98285714,17.1547652 7.98285714,16.5 C7.98285714,16.0089261 8.12608488,15.5587818 8.41254464,15.1495536 C8.69900441,14.7403253 9.07958096,14.4497776 9.55428571,14.2779018 L9.55428571,9.42857143 L11.1257143,9.42857143 L11.1257143,14.2779018 C11.600419,14.4497776 11.9809956,14.7403253 12.2674554,15.1495536 C12.5539151,15.5587818 12.6971429,16.0089261 12.6971429,16.5 Z M14.2685714,16.5 C14.2685714,15.8697885 14.1294359,15.2805087 13.8511607,14.7321429 C13.5728855,14.183777 13.1882167,13.7254483 12.6971429,13.3571429 L12.6971429,3.92857143 C12.6971429,3.27380625 12.4679785,2.7172642 12.0096429,2.25892857 C11.5513072,1.80059295 10.9947652,1.57142857 10.34,1.57142857 C9.68523482,1.57142857 9.12869277,1.80059295 8.67035714,2.25892857 C8.21202152,2.7172642 7.98285714,3.27380625 7.98285714,3.92857143 L7.98285714,13.3571429 C7.49178326,13.7254483 7.10711449,14.183777 6.82883929,14.7321429 C6.55056408,15.2805087 6.41142857,15.8697885 6.41142857,16.5 C6.41142857,17.5885471 6.79405123,18.5154352 7.55930804,19.280692 C8.32456484,20.0459488 9.25145289,20.4285714 10.34,20.4285714 C11.4285471,20.4285714 12.3554352,20.0459488 13.120692,19.280692 C13.8859488,18.5154352 14.2685714,17.5885471 14.2685714,16.5 Z M15.84,16.5 C15.84,18.0141445 15.3018729,19.3093324 14.2256027,20.3856027 C13.1493324,21.4618729 11.8541445,22 10.34,22 C8.82585552,22 7.53066758,21.4618729 6.45439732,20.3856027 C5.37812706,19.3093324 4.84,18.0141445 4.84,16.5 C4.84,15.0104092 5.36380429,13.7295441 6.41142857,12.6573661 L6.41142857,3.92857143 C6.41142857,2.84002432 6.79405123,1.91313627 7.55930804,1.14787946 C8.32456484,0.382622662 9.25145289,0 10.34,0 C11.4285471,0 12.3554352,0.382622662 13.120692,1.14787946 C13.8859488,1.91313627 14.2685714,2.84002432 14.2685714,3.92857143 L14.2685714,12.6573661 C15.3161957,13.7295441 15.84,15.0104092 15.84,16.5 Z M17.4114286,9.42857143 L17.4114286,11 L15.0542857,11 L15.0542857,9.42857143 L17.4114286,9.42857143 Z M17.4114286,6.28571429 L17.4114286,7.85714286 L15.0542857,7.85714286 L15.0542857,6.28571429 L17.4114286,6.28571429 Z M17.4114286,3.14285714 L17.4114286,4.71428571 L15.0542857,4.71428571 L15.0542857,3.14285714 L17.4114286,3.14285714 Z" transform="translate(10 9)"/>
    </g>
    <path stroke="#FFF" stroke-width="2" d="M40.1429062,20.5714531 C40.1429062,9.75318858 31.3897176,1 20.5714531,1 C9.75318858,1 1,9.75318858 1,20.5714531 C1,23.3022456 1.36393597,25.5040583 2.23036856,27.3368975 L16.901457,58.4478744 C17.5241184,59.8177294 18.9880038,60.7143593 20.5714531,60.7143593 C22.1536845,60.7143593 23.6280173,59.8169394 24.2870697,58.4361055 L38.9129395,27.3360463 C39.7789702,25.5040583 40.1429062,23.3022456 40.1429062,20.5714531 Z" mask="url(#-marker@1.5x-c)"/>
  </g>
</svg>
